<svg id="Layer_1" data-name="Layer 1" xmlns="http://www.w3.org/2000/svg" viewBox="0 0 952.44 572.12"><defs><style>.cls-1{fill:#fff;}.cls-18,.cls-2,.cls-27,.cls-28,.cls-29,.cls-5{fill:none;}.cls-2,.cls-27,.cls-28,.cls-29,.cls-34,.cls-5{stroke:#646e85;}.cls-2,.cls-27,.cls-34,.cls-5{stroke-miterlimit:10;}.cls-2,.cls-34{stroke-width:2px;}.cls-3{font-size:23px;}.cls-10,.cls-13,.cls-3,.cls-34,.cls-9{fill:#646e85;}.cls-10,.cls-13,.cls-20,.cls-3{font-family:Roboto-Regular, Roboto;}.cls-4{letter-spacing:-0.01em;}.cls-5{stroke-width:2.5px;}.cls-6{letter-spacing:-0.01em;}.cls-7{letter-spacing:-0.01em;}.cls-8{letter-spacing:-0.01em;}.cls-10{font-size:14px;}.cls-11{fill:#ebfffc;}.cls-12{fill:#48a69e;}.cls-13{font-size:19px;}.cls-14{letter-spacing:0.01em;}.cls-15{letter-spacing:-0.01em;}.cls-16{letter-spacing:-0.01em;}.cls-17{letter-spacing:-0.01em;}.cls-18{stroke:#48a69e;stroke-width:0.94px;}.cls-18,.cls-28,.cls-29{stroke-linejoin:round;}.cls-19,.cls-20{isolation:isolate;}.cls-20{font-size:11.29px;fill:#5c5c5c;}.cls-21{letter-spacing:0.01em;}.cls-22{letter-spacing:-0.02em;}.cls-23{letter-spacing:0.01em;}.cls-24{letter-spacing:-0.01em;}.cls-25{letter-spacing:0.01em;}.cls-26{letter-spacing:-0.02em;}.cls-27{stroke-width:1.78px;}.cls-28,.cls-29{stroke-linecap:round;stroke-width:0.87px;}.cls-28,.cls-30{opacity:0.3;}.cls-31{letter-spacing:-0.11em;}.cls-32{letter-spacing:-0.06em;}.cls-33{letter-spacing:-0.02em;}</style></defs><rect class="cls-1" width="952.44" height="572.12"/><rect class="cls-2" x="39.17" y="252.52" width="259.09" height="136.49" rx="11.34"/><text class="cls-3" transform="translate(108.58 313.68)">Single <tspan class="cls-4" x="68.28" y="0">P</tspan><tspan x="82.67" y="0">age</tspan><tspan x="0" y="27.6">Application</tspan></text><rect class="cls-5" x="488.77" y="74.99" width="43.98" height="487.13" rx="7.9"/><text class="cls-3" transform="translate(440.65 44.87)">R<tspan class="cls-6" x="14.16" y="0">ev</tspan><tspan x="37.2" y="0">erse P</tspan><tspan class="cls-7" x="101.41" y="0">r</tspan><tspan class="cls-8" x="108.97" y="0">o</tspan><tspan x="121.85" y="0">xy</tspan></text><path class="cls-2" d="M298.26,274h57.29a11.74,11.74,0,0,0,11.74-11.74V197.46A11.75,11.75,0,0,1,379,185.71H483.32"/><path class="cls-9" d="M475.83,192.65V178.77a.81.81,0,0,1,1.27-.66l9.78,6.95a.8.8,0,0,1,0,1.31l-9.78,6.94A.8.8,0,0,1,475.83,192.65Z"/><text class="cls-10" transform="translate(421.92 158.47)"><tspan class="cls-8">O</tspan><tspan class="cls-4" x="9.48" y="0">A</tspan><tspan x="18.54" y="0">uth</tspan><tspan x="-19.6" y="16.8">Requests</tspan></text><rect class="cls-11" x="692.81" y="312.19" width="191.48" height="97.15" rx="9.96"/><path class="cls-12" d="M874.33,313.32a8.85,8.85,0,0,1,8.84,8.83v77.24a8.85,8.85,0,0,1-8.84,8.83H702.77a8.85,8.85,0,0,1-8.84-8.83V322.15a8.85,8.85,0,0,1,8.84-8.83H874.33m0-2.25H702.77a11.09,11.09,0,0,0-11.09,11.08v77.24a11.09,11.09,0,0,0,11.09,11.08H874.33a11.08,11.08,0,0,0,11.08-11.08V322.15a11.08,11.08,0,0,0-11.08-11.08Z"/><text class="cls-13" transform="translate(721.95 366.32)">Identity Se<tspan class="cls-14" x="88.49" y="0">r</tspan><tspan class="cls-15" x="95.08" y="0">v</tspan><tspan x="104.17" y="0">er</tspan></text><rect class="cls-2" x="691.68" y="443.34" width="193.73" height="99.4" rx="11.08"/><text class="cls-13" transform="translate(721.95 498.6)">Mic<tspan class="cls-16" x="31.14" y="0">r</tspan><tspan x="37.39" y="0">ose</tspan><tspan class="cls-14" x="68.09" y="0">r</tspan><tspan x="74.68" y="0">vices</tspan></text><line class="cls-2" x1="533.75" y1="187.62" x2="683.77" y2="187.62"/><path class="cls-9" d="M680.08,194.56V180.68a.8.8,0,0,1,1.27-.66l9.78,6.94a.81.81,0,0,1,0,1.32l-9.78,6.94A.81.81,0,0,1,680.08,194.56Z"/><polyline class="cls-2" points="692.02 223.85 583.46 223.85 543.15 223.85"/><path class="cls-9" d="M545.7,230.8V216.91a.8.8,0,0,0-1.27-.65l-9.79,6.94a.8.8,0,0,0,0,1.31l9.79,6.94A.8.8,0,0,0,545.7,230.8Z"/><rect class="cls-11" x="692.81" y="152.92" width="191.48" height="97.15" rx="9.96"/><path class="cls-12" d="M874.33,154a8.86,8.86,0,0,1,8.84,8.84v77.23a8.86,8.86,0,0,1-8.84,8.84H702.77a8.86,8.86,0,0,1-8.84-8.84V162.88a8.86,8.86,0,0,1,8.84-8.84H874.33m0-2.24H702.77a11.09,11.09,0,0,0-11.09,11.08v77.23a11.1,11.1,0,0,0,11.09,11.09H874.33a11.09,11.09,0,0,0,11.08-11.09V162.88a11.08,11.08,0,0,0-11.08-11.08Z"/><text class="cls-13" transform="translate(721.95 195.65)">Back-End for <tspan class="cls-17" x="0" y="22.8">F</tspan><tspan class="cls-16" x="10.26" y="22.8">r</tspan><tspan x="16.5" y="22.8">ont-End (API)</tspan></text><rect class="cls-11" x="537" y="338.83" width="87.42" height="43.88" rx="4.27"/><path class="cls-12" d="M620.15,339.83a3.28,3.28,0,0,1,3.27,3.27v35.34a3.27,3.27,0,0,1-3.27,3.27H541.27a3.27,3.27,0,0,1-3.27-3.27V343.1a3.28,3.28,0,0,1,3.27-3.27h78.88m0-2H541.27A5.27,5.27,0,0,0,536,343.1v35.34a5.27,5.27,0,0,0,5.27,5.27h78.88a5.27,5.27,0,0,0,5.27-5.27V343.1a5.27,5.27,0,0,0-5.27-5.27Z"/><text class="cls-13" transform="translate(549.4 366.32)">Plugins</text><path class="cls-9" d="M680.08,354.51V340.63a.8.8,0,0,1,1.27-.66l9.78,6.94a.81.81,0,0,1,0,1.32l-9.78,6.94A.81.81,0,0,1,680.08,354.51Z"/><line class="cls-2" x1="680.08" y1="347.57" x2="625.42" y2="347.57"/><path class="cls-9" d="M636.81,381V367.13a.81.81,0,0,0-1.27-.66l-9.78,6.95a.79.79,0,0,0,0,1.31l9.78,6.94A.8.8,0,0,0,636.81,381Z"/><polyline class="cls-2" points="691.85 374.07 637.19 374.07 634.1 374.07"/><g id="Graphic_56" data-name="Graphic 56"><path class="cls-1" d="M666.09,333.17h8.42v-5.51a5.64,5.64,0,0,1,0-11.09v-5.5H633.38a2.3,2.3,0,0,0-2.39,2.19v17.68a2.31,2.31,0,0,0,2.39,2.21H670"/><path class="cls-18" d="M666.09,333.17h8.42v-5.51a5.64,5.64,0,0,1,0-11.09v-5.5H633.38a2.3,2.3,0,0,0-2.39,2.19v17.68a2.31,2.31,0,0,0,2.39,2.21H670"/><g class="cls-19"><text class="cls-20" transform="translate(638.53 325.72)">Ref</text></g></g><g id="Graphic_56-2" data-name="Graphic 56"><path class="cls-1" d="M666.09,410.47h8.42V405a5.65,5.65,0,0,1,0-11.1v-5.49H633.38a2.3,2.3,0,0,0-2.39,2.19v17.68a2.31,2.31,0,0,0,2.39,2.2H670"/><path class="cls-18" d="M666.09,410.47h8.42V405a5.65,5.65,0,0,1,0-11.1v-5.49H633.38a2.3,2.3,0,0,0-2.39,2.19v17.68a2.31,2.31,0,0,0,2.39,2.2H670"/><g class="cls-19"><text class="cls-20" transform="translate(638.52 403.03)">J<tspan class="cls-21" x="6.23" y="0">W</tspan><tspan class="cls-22" x="16.33" y="0">T</tspan></text></g></g><line class="cls-2" x1="533.75" y1="493.04" x2="683.77" y2="493.04"/><path class="cls-9" d="M680.08,500V486.1a.8.8,0,0,1,1.27-.65l9.78,6.94a.8.8,0,0,1,0,1.31l-9.78,6.94A.8.8,0,0,1,680.08,500Z"/><g id="Graphic_56-3" data-name="Graphic 56"><path class="cls-1" d="M666.09,485.3h8.42v-5.51a5.64,5.64,0,0,1,0-11.09v-5.5H633.38a2.31,2.31,0,0,0-2.39,2.2v17.68a2.31,2.31,0,0,0,2.39,2.2H670"/><path class="cls-18" d="M666.09,485.3h8.42v-5.51a5.64,5.64,0,0,1,0-11.09v-5.5H633.38a2.31,2.31,0,0,0-2.39,2.2v17.68a2.31,2.31,0,0,0,2.39,2.2H670"/><g class="cls-19"><text class="cls-20" transform="translate(638.52 477.85)">J<tspan class="cls-21" x="6.23" y="0">W</tspan><tspan class="cls-22" x="16.33" y="0">T</tspan></text></g></g><text class="cls-10" transform="translate(569.03 513.76)"><tspan class="cls-8">F</tspan><tspan x="7.59" y="0">o</tspan><tspan class="cls-23" x="15.58" y="0">r</tspan><tspan x="20.43" y="0">wa</tspan><tspan class="cls-24" x="38.57" y="0">r</tspan><tspan x="43.18" y="0">d a J</tspan><tspan class="cls-25" x="73.34" y="0">W</tspan><tspan class="cls-26" x="85.86" y="0">T</tspan><tspan x="-12.13" y="16.8">inside the cluster</tspan></text><line class="cls-2" x1="298.26" y1="320.57" x2="481.52" y2="320.57"/><path class="cls-9" d="M475.83,327.51V313.63a.8.8,0,0,1,1.27-.66l9.78,6.94a.81.81,0,0,1,0,1.32l-9.78,6.94A.81.81,0,0,1,475.83,327.51Z"/><path class="cls-27" d="M302.18,289h75.21c3.3,0,6-2.13,6-4.75V228.69c0-2.62,2.66-4.75,5.95-4.75,21.92,0,96.93-.18,97.91,0h.49"/><path class="cls-9" d="M310.68,295.91V282a.8.8,0,0,0-1.27-.65l-9.78,6.94a.79.79,0,0,0,0,1.31l9.78,6.94A.8.8,0,0,0,310.68,295.91Z"/><circle class="cls-1" cx="592.26" cy="223.85" r="21.01"/><path class="cls-28" d="M604,217.94a5.4,5.4,0,0,1-.91.08,5.64,5.64,0,0,1-5.64-5.64c0-.11,0-.23,0-.34a5.62,5.62,0,0,1-2.29-3.51,16.42,16.42,0,0,0-2.54-.2,15.53,15.53,0,1,0,15.53,15.52,14.82,14.82,0,0,0-.18-2.32A5.66,5.66,0,0,1,604,217.94Z"/><circle class="cls-29" cx="588.54" cy="217.58" r="3.11"/><circle class="cls-29" cx="591.21" cy="233.4" r="2.01"/><circle class="cls-29" cx="594.29" cy="221.17" r="1.1"/><circle class="cls-29" cx="589.32" cy="227.27" r="1.1"/><circle class="cls-29" cx="596.92" cy="228.31" r="2.45"/><circle class="cls-29" cx="581.21" cy="221.17" r="1.54"/><circle class="cls-29" cx="602.62" cy="224.67" r="1.54"/><circle class="cls-29" cx="583.48" cy="228.31" r="2.45"/><path class="cls-29" d="M603.29,217.94a5.5,5.5,0,0,1-.91.08,5.65,5.65,0,0,1-5.65-5.64c0-.11,0-.23,0-.34a5.58,5.58,0,0,1-2.29-3.51,16.42,16.42,0,0,0-2.54-.2,15.53,15.53,0,1,0,15.52,15.52,16.14,16.14,0,0,0-.17-2.32A5.66,5.66,0,0,1,603.29,217.94Z"/><g class="cls-30"><path class="cls-29" d="M584.77,232.92a1.31,1.31,0,0,1,1.31,1.31"/><path class="cls-29" d="M586.36,224.94a2.19,2.19,0,0,1,2.18-2.18"/><path class="cls-29" d="M597.56,235.1a2.19,2.19,0,0,1,2.19-2.18"/><path class="cls-29" d="M592.6,226.5a1.1,1.1,0,0,1,0,1.54"/><path class="cls-29" d="M591.7,211.83a1.08,1.08,0,0,1-1.54,0"/><path class="cls-29" d="M599.56,223a1.1,1.1,0,0,1-1.54,0"/></g><circle class="cls-1" cx="428.21" cy="223.85" r="21.01"/><path class="cls-28" d="M439.93,217.94a5.52,5.52,0,0,1-.92.08,5.65,5.65,0,0,1-5.64-5.64c0-.11,0-.23,0-.34a5.66,5.66,0,0,1-2.29-3.51,16.23,16.23,0,0,0-2.54-.2,15.53,15.53,0,1,0,15.53,15.52,16.14,16.14,0,0,0-.17-2.32A5.64,5.64,0,0,1,439.93,217.94Z"/><circle class="cls-29" cx="424.5" cy="217.58" r="3.11"/><circle class="cls-29" cx="427.16" cy="233.4" r="2.01"/><circle class="cls-29" cx="430.24" cy="221.17" r="1.1"/><circle class="cls-29" cx="425.27" cy="227.27" r="1.1"/><circle class="cls-29" cx="432.88" cy="228.31" r="2.45"/><circle class="cls-29" cx="417.17" cy="221.17" r="1.54"/><circle class="cls-29" cx="438.58" cy="224.67" r="1.54"/><circle class="cls-29" cx="419.44" cy="228.31" r="2.45"/><path class="cls-29" d="M439.25,217.94a5.62,5.62,0,0,1-6.56-5.56c0-.11,0-.23,0-.34a5.66,5.66,0,0,1-2.29-3.51,16.23,16.23,0,0,0-2.54-.2,15.53,15.53,0,1,0,15.53,15.52,16.14,16.14,0,0,0-.17-2.32A5.64,5.64,0,0,1,439.25,217.94Z"/><g class="cls-30"><path class="cls-29" d="M420.73,232.92a1.31,1.31,0,0,1,1.31,1.31"/><path class="cls-29" d="M422.32,224.94a2.18,2.18,0,0,1,2.18-2.18"/><path class="cls-29" d="M433.52,235.1a2.19,2.19,0,0,1,2.18-2.18"/><path class="cls-29" d="M428.55,226.5a1.08,1.08,0,0,1,0,1.54"/><path class="cls-29" d="M427.66,211.83a1.09,1.09,0,0,1-1.55,0"/><path class="cls-29" d="M435.52,223a1.1,1.1,0,0,1-1.54,0"/></g><circle class="cls-1" cx="428.21" cy="319.17" r="21.01"/><path class="cls-28" d="M439.93,313.27a6.86,6.86,0,0,1-.92.07,5.64,5.64,0,0,1-5.64-5.64c0-.11,0-.22,0-.34a5.64,5.64,0,0,1-2.29-3.5,15.1,15.1,0,0,0-2.54-.21,15.53,15.53,0,1,0,15.53,15.52,16.14,16.14,0,0,0-.17-2.32A5.65,5.65,0,0,1,439.93,313.27Z"/><circle class="cls-29" cx="424.5" cy="312.9" r="3.11"/><circle class="cls-29" cx="427.16" cy="328.72" r="2.01"/><circle class="cls-29" cx="430.24" cy="316.49" r="1.1"/><circle class="cls-29" cx="425.27" cy="322.59" r="1.1"/><circle class="cls-29" cx="432.88" cy="323.63" r="2.45"/><circle class="cls-29" cx="417.17" cy="316.49" r="1.54"/><circle class="cls-29" cx="438.58" cy="319.99" r="1.54"/><circle class="cls-29" cx="419.44" cy="323.63" r="2.45"/><path class="cls-29" d="M439.25,313.27a7,7,0,0,1-.92.07,5.64,5.64,0,0,1-5.64-5.64c0-.11,0-.22,0-.34a5.64,5.64,0,0,1-2.29-3.5,15.1,15.1,0,0,0-2.54-.21,15.53,15.53,0,1,0,15.53,15.52,16.14,16.14,0,0,0-.17-2.32A5.65,5.65,0,0,1,439.25,313.27Z"/><g class="cls-30"><path class="cls-29" d="M420.73,328.24a1.31,1.31,0,0,1,1.31,1.31"/><path class="cls-29" d="M422.32,320.27a2.18,2.18,0,0,1,2.18-2.19"/><path class="cls-29" d="M433.52,330.42a2.19,2.19,0,0,1,2.18-2.18"/><path class="cls-29" d="M428.55,321.82a1.08,1.08,0,0,1,0,1.54"/><path class="cls-29" d="M427.66,307.16a1.11,1.11,0,0,1-1.55,0"/><path class="cls-29" d="M435.52,318.3a1.1,1.1,0,0,1-1.54,0"/></g><text class="cls-10" transform="translate(438.69 354.07)">API<tspan x="-36.37" y="16.8">Requests</tspan></text><text class="cls-10" transform="translate(78.88 40.67)">https:<tspan class="cls-31" x="35.32" y="0">/</tspan><tspan x="39.56" y="0">/ww</tspan><tspan class="cls-32" x="66.37" y="0">w</tspan><tspan x="76.04" y="0">.example.com</tspan></text><rect class="cls-2" x="39.17" y="54.51" width="259.09" height="136.49" rx="11.34"/><text class="cls-3" transform="translate(108.58 115.68)"><tspan class="cls-33">W</tspan><tspan x="20.06" y="0">eb Content</tspan><tspan x="0" y="27.6">Deli</tspan><tspan class="cls-6" x="38.43" y="27.6">v</tspan><tspan x="49.43" y="27.6">e</tspan><tspan class="cls-14" x="61.61" y="27.6">r</tspan><tspan x="69.6" y="27.6">y</tspan></text><text class="cls-10" transform="translate(50.13 409.81)">Secu<tspan class="cls-24" x="30.77" y="0">r</tspan><tspan x="35.38" y="0">e B</tspan><tspan class="cls-7" x="54.97" y="0">r</tspan><tspan x="59.58" y="0">owsing </tspan><tspan x="0" y="16.8">Good Login Usability</tspan></text><line class="cls-2" x1="168.71" y1="191" x2="168.71" y2="244.86"/><path class="cls-9" d="M175.87,239.17H162a.8.8,0,0,0-.66,1.27l6.94,9.78a.81.81,0,0,0,1.32,0l6.94-9.78A.81.81,0,0,0,175.87,239.17Z"/><text class="cls-10" transform="translate(714.86 139.77)">https:<tspan class="cls-31" x="35.32" y="0">/</tspan><tspan x="39.56" y="0">/api.example.com</tspan></text><polyline class="cls-34" points="754.55 251.2 754.55 277.89 754.55 301.32"/><path class="cls-9" d="M761.49,297.68H747.61A.8.8,0,0,0,747,299l6.94,9.78a.8.8,0,0,0,1.32,0l6.94-9.78A.81.81,0,0,0,761.49,297.68Z"/><text class="cls-10" transform="translate(766.38 276.26)"><tspan class="cls-8">O</tspan><tspan class="cls-4" x="9.48" y="0">A</tspan><tspan x="18.54" y="0">uth Request P</tspan><tspan class="cls-7" x="105.23" y="0">r</tspan><tspan class="cls-8" x="109.83" y="0">o</tspan><tspan x="117.67" y="0">xying </tspan><tspan x="0" y="16.8">Confidential Client Security</tspan></text></svg>